<svg width="15" height="12" viewBox="0 0 15 12" fill="none" xmlns="http://www.w3.org/2000/svg">
<path d="M10.5694 4.06391C10.5694 4.62269 10.4297 5.15184 10.1503 5.65136C9.87935 6.14242 9.50471 6.57209 9.02636 6.94038C8.54801 7.30867 7.9871 7.59864 7.34366 7.8103C6.70021 8.02196 6.01443 8.12779 5.28631 8.12779C4.76986 8.12779 4.27246 8.07276 3.7941 7.9627C3.31575 7.85264 2.86914 7.69601 2.45429 7.49281C2.18336 7.65367 1.85741 7.79972 1.47642 7.93095C1.09543 8.06218 0.672105 8.12779 0.206451 8.12779C0.164119 8.12779 0.12602 8.11721 0.0921542 8.09605C0.0582885 8.07488 0.0328892 8.04313 0.0159563 8.0008C-0.000976562 7.96693 -0.00520978 7.92883 0.00325666 7.8865C0.0117231 7.84417 0.028656 7.8103 0.0540553 7.7849C0.0625217 7.7849 0.174702 7.64944 0.390596 7.37852C0.60649 7.10759 0.799102 6.78163 0.96843 6.40064C0.663639 6.07045 0.426578 5.70639 0.25725 5.30847C0.087921 4.91055 0.00325666 4.49569 0.00325666 4.06391C0.00325666 3.50512 0.142953 2.97597 0.422345 2.47645C0.693271 1.9854 1.06791 1.55572 1.54626 1.18743C2.02462 0.819144 2.58552 0.529169 3.22897 0.317508C3.87242 0.105847 4.5582 1.71661e-05 5.28631 1.71661e-05C6.01443 1.71661e-05 6.70021 0.105847 7.34366 0.317508C7.9871 0.529169 8.54801 0.819144 9.02636 1.18743C9.50471 1.55572 9.87935 1.9854 10.1503 2.47645C10.4297 2.97597 10.5694 3.50512 10.5694 4.06391ZM13.6681 9.65175C13.8374 10.0327 14.03 10.3587 14.2459 10.6296C14.4618 10.9006 14.574 11.036 14.5825 11.036C14.6079 11.0699 14.6248 11.1059 14.6333 11.144C14.6417 11.1821 14.6375 11.218 14.6206 11.2519C14.6036 11.2942 14.5782 11.326 14.5444 11.3472C14.5105 11.3683 14.4724 11.3789 14.4301 11.3789C13.9644 11.3789 13.5411 11.3133 13.1601 11.1821C12.7791 11.0508 12.4531 10.9048 12.1822 10.7439C11.7674 10.9471 11.3229 11.1037 10.8488 11.2138C10.3746 11.3239 9.87512 11.3789 9.3502 11.3789C8.79988 11.3789 8.27496 11.3196 7.77544 11.2011C7.27592 11.0741 6.8145 10.9006 6.39118 10.6804C5.96786 10.4603 5.59534 10.1978 5.27361 9.89305C4.94342 9.58826 4.68096 9.25383 4.48623 8.88977C4.61323 8.90671 4.74446 8.91941 4.87992 8.92787C5.01539 8.93634 5.15085 8.94057 5.28631 8.94057C6.12449 8.94057 6.9161 8.81358 7.66115 8.55958C8.39773 8.30559 9.04118 7.95635 9.59149 7.51186C10.1418 7.06737 10.5778 6.5488 10.8996 5.95615C11.2213 5.3635 11.3821 4.73275 11.3821 4.06391C11.3821 3.97924 11.38 3.89458 11.3758 3.80991C11.3716 3.72525 11.361 3.64058 11.344 3.55592C11.8266 3.70832 12.2711 3.90728 12.6775 4.1528C13.0754 4.4068 13.4204 4.69677 13.7125 5.02273C14.0046 5.34869 14.2311 5.70639 14.392 6.09585C14.5528 6.48531 14.6333 6.8917 14.6333 7.31502C14.6333 7.74681 14.5486 8.16166 14.3793 8.55958C14.2099 8.95751 13.9729 9.32156 13.6681 9.65175Z" fill="#EEC044"/>
</svg>
