<svg width="30" height="28" viewBox="0 0 30 28" fill="none" xmlns="http://www.w3.org/2000/svg">
<path d="M29.9707 10.5762C29.9707 10.5566 29.9707 10.5322 29.9707 10.5029C29.9707 10.4736 29.9609 10.4492 29.9414 10.4297C29.9219 10.3516 29.8877 10.2734 29.8389 10.1953C29.79 10.1172 29.7266 10.0488 29.6484 9.99023L25.3418 7.03125V3.80859C25.3418 3.59375 25.2686 3.41309 25.1221 3.2666C24.9756 3.12012 24.7949 3.04688 24.5801 3.04688H19.6582L15.4395 0.117188C15.3027 0.0390625 15.1562 0 15 0C14.8438 0 14.6973 0.0390625 14.5605 0.117188L10.3418 3.04688H5.41992C5.20508 3.04688 5.02441 3.12012 4.87793 3.2666C4.73145 3.41309 4.6582 3.59375 4.6582 3.80859V6.97266L0.322266 9.96094C0.224609 10.0391 0.146484 10.1318 0.0878906 10.2393C0.0292969 10.3467 0 10.459 0 10.5762C0 10.5762 0 10.5811 0 10.5908C0 10.6006 0 10.6055 0 10.6055L0.0292969 27.2461C0.0292969 27.3438 0.0488281 27.4414 0.0878906 27.5391C0.126953 27.6367 0.175781 27.7246 0.234375 27.8027C0.3125 27.8613 0.400391 27.9102 0.498047 27.9492C0.595703 27.9883 0.693359 28.0078 0.791016 28.0078L29.2383 27.9785C29.4531 27.9785 29.6338 27.9053 29.7803 27.7588C29.9268 27.6123 30 27.4316 30 27.2168L29.9707 10.5762ZM25.3418 8.87695L27.8027 10.6055L25.3418 12.3047V8.87695ZM15 1.69922L16.9629 3.04688H13.0371L15 1.69922ZM6.18164 4.59961H23.8184V13.3594L17.9004 17.4902L15.4688 15.6152C15.332 15.5176 15.1758 15.4639 15 15.4541C14.8242 15.4443 14.668 15.498 14.5312 15.6152L12.0996 17.4902L6.18164 13.418V4.59961ZM4.6582 8.84766V12.334L2.10938 10.6055L4.6582 8.84766ZM1.55273 12.0703L10.8398 18.4863L1.55273 25.6934V12.0703ZM3.04688 26.4844L15 17.1973L26.9531 26.4551L3.04688 26.4844ZM19.1602 18.4863L28.4473 12.0117V25.6934L19.1602 18.4863ZM20.2148 7.64648H9.78516C9.58984 7.64648 9.41406 7.72461 9.25781 7.88086C9.10156 8.03711 9.02344 8.22266 9.02344 8.4375C9.02344 8.65234 9.10156 8.83301 9.25781 8.97949C9.41406 9.12598 9.58984 9.19922 9.78516 9.19922H20.2148C20.4102 9.19922 20.5859 9.12598 20.7422 8.97949C20.8984 8.83301 20.9766 8.65234 20.9766 8.4375C20.9766 8.22266 20.8984 8.03711 20.7422 7.88086C20.5859 7.72461 20.4102 7.64648 20.2148 7.64648ZM20.2148 11.6602H9.78516C9.58984 11.6602 9.41406 11.7334 9.25781 11.8799C9.10156 12.0264 9.02344 12.207 9.02344 12.4219C9.02344 12.6367 9.10156 12.8174 9.25781 12.9639C9.41406 13.1104 9.58984 13.1836 9.78516 13.1836H20.2148C20.4102 13.1836 20.5859 13.1104 20.7422 12.9639C20.8984 12.8174 20.9766 12.6367 20.9766 12.4219C20.9766 12.207 20.8984 12.0264 20.7422 11.8799C20.5859 11.7334 20.4102 11.6602 20.2148 11.6602Z" fill="#4BAF47"/>
</svg>
