<svg width="25" height="35" viewBox="0 0 25 35" fill="none" xmlns="http://www.w3.org/2000/svg">
<path d="M12.3912 30.5625C12.235 30.5625 12.0944 30.5156 11.9694 30.4219C11.8444 30.3281 11.7506 30.2188 11.6881 30.0938C11.1881 28.6875 10.5006 27.3984 9.62562 26.2266C8.75062 25.0547 7.82874 23.8906 6.85999 22.7344C5.98499 21.6719 5.11781 20.5781 4.25843 19.4531C3.39906 18.3281 2.67249 17.1094 2.07874 15.7969C2.01624 15.6094 2.02406 15.4141 2.10218 15.2109C2.18031 15.0078 2.31312 14.875 2.50062 14.8125C2.68812 14.7188 2.87562 14.7109 3.06312 14.7891C3.25062 14.8672 3.39124 15 3.48499 15.1875C4.01624 16.4062 4.68031 17.5391 5.47718 18.5859C6.27406 19.6328 7.10999 20.6875 7.98499 21.75C8.98499 22.9375 9.94593 24.1562 10.8678 25.4062C11.7897 26.6562 12.5319 28.0469 13.0944 29.5781C13.1569 29.7656 13.1491 29.9531 13.0709 30.1406C12.9928 30.3281 12.86 30.4531 12.6725 30.5156C12.61 30.5469 12.5553 30.5625 12.5084 30.5625C12.4616 30.5625 12.4225 30.5625 12.3912 30.5625ZM12.3912 30.5625C12.36 30.5625 12.3209 30.5625 12.2741 30.5625C12.2272 30.5625 12.1881 30.5469 12.1569 30.5156C11.9381 30.4531 11.7897 30.3281 11.7116 30.1406C11.6334 29.9531 11.6256 29.7656 11.6881 29.5781C12.2506 28.0469 12.9928 26.6562 13.9147 25.4062C14.8366 24.1562 15.7975 22.9375 16.7975 21.75C17.6725 20.6875 18.5084 19.6328 19.3053 18.5859C20.1022 17.5391 20.7662 16.4062 21.2975 15.1875C21.3912 15 21.5319 14.8672 21.7194 14.7891C21.9069 14.7109 22.11 14.7188 22.3287 14.8125C22.5162 14.875 22.6412 15.0078 22.7037 15.2109C22.7662 15.4141 22.7662 15.6094 22.7037 15.7969C22.11 17.1094 21.3912 18.3281 20.5475 19.4531C19.7037 20.5781 18.8287 21.6719 17.9225 22.7344C16.9537 23.8906 16.0319 25.0547 15.1569 26.2266C14.2819 27.3984 13.5944 28.6875 13.0944 30.0938C13.0319 30.2188 12.9381 30.3281 12.8131 30.4219C12.6881 30.5156 12.5475 30.5625 12.3912 30.5625ZM12.3912 17.25C10.7662 17.25 9.35999 16.6562 8.17249 15.4688C6.98499 14.2812 6.39124 12.875 6.39124 11.25C6.39124 9.625 6.98499 8.21875 8.17249 7.03125C9.35999 5.84375 10.7662 5.25 12.3912 5.25C14.0162 5.25 15.4225 5.84375 16.61 7.03125C17.7975 8.21875 18.3912 9.625 18.3912 11.25C18.3912 12.875 17.7975 14.2812 16.61 15.4688C15.4225 16.6562 14.0162 17.25 12.3912 17.25ZM12.3912 6.75C11.1725 6.75 10.1178 7.19531 9.22718 8.08594C8.33656 8.97656 7.89124 10.0312 7.89124 11.25C7.89124 12.4688 8.33656 13.5234 9.22718 14.4141C10.1178 15.3047 11.1725 15.75 12.3912 15.75C13.61 15.75 14.6647 15.3047 15.5553 14.4141C16.4459 13.5234 16.8912 12.4688 16.8912 11.25C16.8912 10.0312 16.4459 8.97656 15.5553 8.08594C14.6647 7.19531 13.61 6.75 12.3912 6.75ZM22.0006 16.2188C21.9381 16.2188 21.8834 16.2188 21.8366 16.2188C21.7897 16.2188 21.7506 16.2031 21.7194 16.1719C21.5319 16.0781 21.3991 15.9375 21.3209 15.75C21.2428 15.5625 21.235 15.375 21.2975 15.1875C21.9225 13.75 22.1881 12.2656 22.0944 10.7344C22.0006 9.20312 21.5631 7.75 20.7819 6.375C19.9694 5 18.9147 3.89062 17.6178 3.04688C16.3209 2.20312 14.9069 1.70312 13.3756 1.54688C11.8756 1.39062 10.4069 1.58594 8.96937 2.13281C7.53187 2.67969 6.29749 3.51562 5.26624 4.64062C3.95374 6.04688 3.13343 7.71875 2.80531 9.65625C2.47718 11.5938 2.70374 13.4375 3.48499 15.1875C3.54749 15.375 3.54749 15.5625 3.48499 15.75C3.42249 15.9375 3.29749 16.0781 3.10999 16.1719C2.89124 16.2656 2.68812 16.2734 2.50062 16.1953C2.31312 16.1172 2.17249 15.9844 2.07874 15.7969C1.20374 13.7656 0.953744 11.6328 1.32874 9.39844C1.70374 7.16406 2.64124 5.23438 4.14124 3.60938C5.32874 2.32812 6.75062 1.375 8.40687 0.75C10.0631 0.125 11.7662 -0.109375 13.5162 0.046875C15.2975 0.234375 16.9381 0.8125 18.4381 1.78125C19.9381 2.75 21.1412 4.03125 22.0475 5.625C22.985 7.21875 23.5084 8.89844 23.6178 10.6641C23.7272 12.4297 23.4225 14.1406 22.7037 15.7969C22.6412 15.9219 22.5475 16.0234 22.4225 16.1016C22.2975 16.1797 22.1569 16.2188 22.0006 16.2188ZM12.4381 34.5C11.1569 34.5 9.76624 34.4219 8.26624 34.2656C6.76624 34.1094 5.31312 33.7812 3.90687 33.2812C3.34437 33.0938 2.47718 32.6719 1.30531 32.0156C0.133431 31.3594 -0.249381 30.4062 0.156869 29.1562C0.250619 28.8125 0.438119 28.4844 0.719369 28.1719C1.00062 27.8594 1.35999 27.5781 1.79749 27.3281C2.48499 26.8906 3.20374 26.5547 3.95374 26.3203C4.70374 26.0859 5.40687 25.8906 6.06312 25.7344C6.25062 25.7031 6.43812 25.7422 6.62562 25.8516C6.81312 25.9609 6.92249 26.1094 6.95374 26.2969C7.01624 26.5156 6.99281 26.7109 6.88343 26.8828C6.77406 27.0547 6.60999 27.1562 6.39124 27.1875C5.64124 27.375 4.95374 27.5703 4.32874 27.7734C3.70374 27.9766 3.12562 28.25 2.59437 28.5938C2.31312 28.75 2.08656 28.9141 1.91468 29.0859C1.74281 29.2578 1.62562 29.4375 1.56312 29.625C1.46937 30 1.65687 30.375 2.12562 30.75C2.59437 31.125 3.35999 31.5 4.42249 31.875C5.89124 32.4062 7.42249 32.7266 9.01624 32.8359C10.61 32.9453 12.0475 33 13.3287 33C15.11 32.9688 16.6881 32.8203 18.0631 32.5547C19.4381 32.2891 20.6412 31.8906 21.6725 31.3594C21.985 31.2031 22.36 30.9531 22.7975 30.6094C23.235 30.2656 23.36 29.8906 23.1725 29.4844C22.8287 28.7969 22.1725 28.2969 21.2037 27.9844C20.235 27.6719 19.3756 27.4375 18.6256 27.2812L18.3912 27.1875C18.2037 27.1562 18.0475 27.0547 17.9225 26.8828C17.7975 26.7109 17.7662 26.5156 17.8287 26.2969C17.86 26.1094 17.9694 25.9609 18.1569 25.8516C18.3444 25.7422 18.5319 25.7031 18.7194 25.7344L18.9537 25.7812C19.86 26 20.8834 26.3125 22.0241 26.7188C23.1647 27.125 23.985 27.8125 24.485 28.7812C24.8287 29.5 24.8131 30.2031 24.4381 30.8906C24.0631 31.5781 23.3756 32.1719 22.3756 32.6719C21.2194 33.2656 19.8991 33.7109 18.4147 34.0078C16.9303 34.3047 15.2506 34.4688 13.3756 34.5C13.2194 34.5 13.0631 34.5 12.9069 34.5C12.7506 34.5 12.5944 34.5 12.4381 34.5Z" fill="#4BAF47"/>
</svg>
