<svg width="16" height="12" viewBox="0 0 16 12" fill="none" xmlns="http://www.w3.org/2000/svg">
<path d="M5.4375 11.7031L0.234375 6.5C0.078125 6.34375 0 6.15625 0 5.9375C0 5.71875 0.078125 5.53125 0.234375 5.375L1.35938 4.23438C1.51562 4.07812 1.70573 4 1.92969 4C2.15365 4 2.34375 4.07812 2.5 4.23438L6 7.73438L13.5 0.234375C13.6562 0.078125 13.8464 0 14.0703 0C14.2943 0 14.4844 0.078125 14.6406 0.234375L15.7656 1.375C15.9219 1.53125 16 1.71875 16 1.9375C16 2.15625 15.9219 2.34375 15.7656 2.5L6.5625 11.7031C6.40625 11.8594 6.21875 11.9375 6 11.9375C5.78125 11.9375 5.59375 11.8594 5.4375 11.7031Z" fill="#C5CE38"/>
</svg>
