<svg width="64" height="64" viewBox="0 0 64 64" fill="none" xmlns="http://www.w3.org/2000/svg">
<path d="M47.2695 41.0581C46.7695 40.7222 46.1758 40.5542 45.4883 40.5542C44.8008 40.5542 44.2279 40.7222 43.7695 41.0581L35.0195 46.937V11.3696C35.0195 10.8937 34.7799 10.4948 34.3008 10.1729C33.8216 9.85091 33.2279 9.68994 32.5195 9.68994C31.8112 9.68994 31.2174 9.85091 30.7383 10.1729C30.2591 10.4948 30.0195 10.8937 30.0195 11.3696V46.937L21.2695 41.0581C20.8112 40.7222 20.2383 40.5542 19.5508 40.5542C18.8633 40.5542 18.2695 40.7222 17.7695 41.0581C17.2695 41.366 17.0195 41.751 17.0195 42.2129C17.0195 42.6748 17.2695 43.0737 17.7695 43.4097L30.7695 52.186C31.2279 52.522 31.8112 52.6899 32.5195 52.6899C33.2279 52.6899 33.8112 52.522 34.2695 52.186L47.2695 43.4097C47.7695 43.0737 48.0195 42.6748 48.0195 42.2129C48.0195 41.751 47.7695 41.366 47.2695 41.0581Z" fill="#1F1E17"/>
</svg>
