<svg width="64" height="64" viewBox="0 0 64 64" fill="none" xmlns="http://www.w3.org/2000/svg">
<path d="M47.2695 18.8335L34.2695 9.24072C33.8112 8.87354 33.2279 8.68994 32.5195 8.68994C31.8112 8.68994 31.2279 8.87354 30.7695 9.24072L17.7695 18.8335C17.2695 19.2007 17.0195 19.6367 17.0195 20.1416C17.0195 20.6465 17.2695 21.0672 17.7695 21.4038C18.2695 21.771 18.8633 21.9546 19.5508 21.9546C20.2383 21.9546 20.8112 21.771 21.2695 21.4038L30.0195 14.978V53.854C30.0195 54.3742 30.2591 54.8102 30.7383 55.1621C31.2174 55.514 31.8112 55.6899 32.5195 55.6899C33.2279 55.6899 33.8216 55.514 34.3008 55.1621C34.7799 54.8102 35.0195 54.3742 35.0195 53.854V14.978L43.7695 21.4038C44.2279 21.771 44.8008 21.9546 45.4883 21.9546C46.1758 21.9546 46.7695 21.771 47.2695 21.4038C47.7695 21.0672 48.0195 20.6465 48.0195 20.1416C48.0195 19.6367 47.7695 19.2007 47.2695 18.8335Z" fill="#1F1E17"/>
</svg>
