<svg width="40" height="40" viewBox="0 0 40 40" fill="none" xmlns="http://www.w3.org/2000/svg">
<path d="M20 0C17.2396 0 14.6484 0.520832 12.2266 1.5625C9.80469 2.63021 7.6888 4.06901 5.87891 5.87891C4.06901 7.6888 2.63021 9.80469 1.5625 12.2266C0.520833 14.6484 0 17.2396 0 20C0 22.7604 0.520833 25.3516 1.5625 27.7734C2.63021 30.1953 4.06901 32.3112 5.87891 34.1211C7.6888 35.931 9.80469 37.3698 12.2266 38.4375C14.6484 39.4792 17.2396 40 20 40C22.7604 40 25.3516 39.4792 27.7734 38.4375C30.1953 37.3698 32.3112 35.931 34.1211 34.1211C35.931 32.3112 37.3698 30.1953 38.4375 27.7734C39.4792 25.3516 40 22.7604 40 20C40 17.2396 39.4792 14.6484 38.4375 12.2266C37.3698 9.80469 35.931 7.6888 34.1211 5.87891C32.3112 4.06901 30.1953 2.63021 27.7734 1.5625C25.3516 0.520832 22.7604 0 20 0ZM30.1172 15.7422L19.2969 26.6016C19.1406 26.7578 18.9583 26.875 18.75 26.9531C18.5417 27.0312 18.3333 27.0703 18.125 27.0703C17.9167 27.0703 17.7083 27.0312 17.5 26.9531C17.2917 26.875 17.1094 26.7578 16.9531 26.6016L11.5234 21.1719C11.2109 20.8594 11.0547 20.4688 11.0547 20C11.0547 19.5312 11.2109 19.1406 11.5234 18.8281C11.862 18.4896 12.2591 18.3203 12.7148 18.3203C13.1706 18.3203 13.5547 18.4896 13.8672 18.8281L18.125 23.0469L27.7734 13.3984C28.112 13.0859 28.5091 12.9297 28.9648 12.9297C29.4206 12.9297 29.8047 13.0859 30.1172 13.3984C30.4557 13.737 30.625 14.1341 30.625 14.5898C30.625 15.0456 30.4557 15.4297 30.1172 15.7422Z" fill="#C5CE38"/>
</svg>
