<svg width="16" height="16" viewBox="0 0 16 16" fill="none" xmlns="http://www.w3.org/2000/svg">
<g clip-path="url(#clip0_4138_661)">
<path d="M15.9223 6.14065C15.8702 5.97399 15.7791 5.83857 15.6489 5.7344C15.5187 5.63024 15.3702 5.56774 15.2036 5.5469L10.5786 5.14065L8.75043 0.859404C8.68793 0.703154 8.58377 0.578154 8.43793 0.484404C8.2921 0.390654 8.13585 0.343779 7.96918 0.343779C7.80252 0.343779 7.64627 0.390654 7.50043 0.484404C7.3546 0.578154 7.25043 0.703154 7.18793 0.859404L5.35981 5.14065L0.734809 5.5469C0.568142 5.56774 0.419705 5.63024 0.289497 5.7344C0.159288 5.83857 0.0681424 5.97399 0.016059 6.14065C-0.0360243 6.2969 -0.0412326 6.45836 0.000434028 6.62503C0.0421007 6.7917 0.130642 6.93232 0.266059 7.0469L3.75043 10.1094L2.71918 14.6407C2.68793 14.8073 2.70095 14.9688 2.75825 15.125C2.81554 15.2813 2.91189 15.4115 3.04731 15.5157C3.12023 15.5677 3.20095 15.6068 3.2895 15.6328C3.37804 15.6589 3.46398 15.6719 3.54731 15.6719C3.62023 15.6719 3.69575 15.6615 3.77387 15.6407C3.852 15.6198 3.92231 15.5938 3.98481 15.5625L7.96918 13.1719L11.9536 15.5625C12.0994 15.6459 12.2556 15.6849 12.4223 15.6797C12.589 15.6745 12.7452 15.6198 12.8911 15.5157C13.0265 15.4115 13.1228 15.2813 13.1801 15.125C13.2374 14.9688 13.2504 14.8073 13.2192 14.6407L12.1879 10.1094L15.6723 7.0469C15.8077 6.93232 15.8963 6.7917 15.9379 6.62503C15.9796 6.45836 15.9744 6.2969 15.9223 6.14065Z" fill="#EEC044"/>
</g>
<defs>
<clipPath id="clip0_4138_661">
<rect width="16" height="16" fill="white" transform="matrix(1 0 0 -1 0 16)"/>
</clipPath>
</defs>
</svg>
