<svg width="64" height="59" viewBox="0 0 64 59" fill="none" xmlns="http://www.w3.org/2000/svg">
<path d="M63.5625 32.0625L58.3125 26.8125C58.1042 26.6042 57.875 26.5 57.625 26.5C57.375 26.5 57.1667 26.6042 57 26.8125C56.7917 26.9792 56.6875 27.1979 56.6875 27.4688C56.6875 27.7396 56.7917 27.9583 57 28.125L62 33.125L60 35.125L48.9375 24.0625C49.1458 23.9375 49.3333 23.7917 49.5 23.625C49.6667 23.4583 49.8333 23.2917 50 23.125C50.1667 22.9583 50.3333 22.7917 50.5 22.625C50.6667 22.4583 50.8125 22.2708 50.9375 22.0625L53.875 25C54.0417 25.2083 54.2604 25.3125 54.5312 25.3125C54.8021 25.3125 55.0208 25.2083 55.1875 25C55.3542 24.8333 55.4375 24.6146 55.4375 24.3438C55.4375 24.0729 55.3542 23.8542 55.1875 23.6875L52.0625 20.5625C53.6042 17.9375 54.2083 15.0729 53.875 11.9688C53.5417 8.86458 52.25 6.1875 50 3.9375C48.7083 2.6875 47.2396 1.71875 45.5938 1.03125C43.9479 0.34375 42.2292 0 40.4375 0C38.6042 0 36.8646 0.34375 35.2188 1.03125C33.5729 1.71875 32.1042 2.6875 30.8125 3.9375C29.4792 5.27083 28.5 6.77083 27.875 8.4375C27.2083 10.1042 26.875 11.8021 26.875 13.5312C26.875 15.2604 27.2083 16.9583 27.875 18.625C28.5 20.2917 29.4792 21.7917 30.8125 23.125C32.1458 24.4583 33.6458 25.4583 35.3125 26.125C36.9792 26.7917 38.6875 27.125 40.4375 27.125C41.6458 27.125 42.8438 26.9583 44.0312 26.625C45.2188 26.2917 46.3333 25.8125 47.375 25.1875L58.875 36.6875C59.0417 36.8542 59.2188 36.9688 59.4062 37.0312C59.5938 37.0938 59.7917 37.125 60 37.125C60.2083 37.125 60.4062 37.0938 60.5938 37.0312C60.7812 36.9688 60.9583 36.8542 61.125 36.6875L63.5625 34.25C63.8542 33.9583 64 33.5938 64 33.1562C64 32.7188 63.8542 32.3542 63.5625 32.0625ZM40.4375 25.25C38.9375 25.25 37.4688 24.9583 36.0312 24.375C34.5938 23.7917 33.2917 22.9375 32.125 21.8125C29.875 19.5208 28.75 16.7604 28.75 13.5312C28.75 10.3021 29.875 7.5625 32.125 5.3125C33.25 4.1875 34.5208 3.33333 35.9375 2.75C37.3542 2.16667 38.8542 1.875 40.4375 1.875C41.9792 1.875 43.4583 2.16667 44.875 2.75C46.2917 3.33333 47.5625 4.1875 48.6875 5.3125C50.9375 7.5625 52.0625 10.3021 52.0625 13.5312C52.0625 16.7604 50.9375 19.5208 48.6875 21.8125C47.5208 22.9375 46.2188 23.7917 44.7812 24.375C43.3438 24.9583 41.8958 25.25 40.4375 25.25ZM47.4375 6.5625C46.4792 5.60417 45.3958 4.875 44.1875 4.375C42.9792 3.875 41.7292 3.625 40.4375 3.625C39.1042 3.625 37.8333 3.875 36.625 4.375C35.4167 4.875 34.3333 5.60417 33.375 6.5625C32.4583 7.47917 31.75 8.54167 31.25 9.75C30.75 10.9583 30.5 12.2292 30.5 13.5625C30.5 14.8958 30.75 16.1562 31.25 17.3438C31.75 18.5312 32.4583 19.6042 33.375 20.5625C34.375 21.5208 35.4792 22.2396 36.6875 22.7188C37.8958 23.1979 39.1458 23.4375 40.4375 23.4375C41.6875 23.4375 42.9271 23.1979 44.1562 22.7188C45.3854 22.2396 46.4792 21.5208 47.4375 20.5625C48.3542 19.6042 49.0625 18.5312 49.5625 17.3438C50.0625 16.1562 50.3125 14.8958 50.3125 13.5625C50.3125 12.2292 50.0625 10.9583 49.5625 9.75C49.0625 8.54167 48.3542 7.47917 47.4375 6.5625ZM46.0625 19.25C45.3125 20.0417 44.4375 20.625 43.4375 21C42.4375 21.375 41.4375 21.5625 40.4375 21.5625C39.3958 21.5625 38.375 21.3646 37.375 20.9688C36.375 20.5729 35.5 20 34.75 19.25C33.9583 18.4583 33.3646 17.5833 32.9688 16.625C32.5729 15.6667 32.375 14.6458 32.375 13.5625C32.375 12.4792 32.5729 11.4479 32.9688 10.4688C33.3646 9.48958 33.9583 8.625 34.75 7.875C35.5 7.125 36.3646 6.54167 37.3438 6.125C38.3229 5.70833 39.3542 5.5 40.4375 5.5C41.4792 5.5 42.4896 5.70833 43.4688 6.125C44.4479 6.54167 45.3125 7.125 46.0625 7.875C46.8542 8.625 47.4479 9.48958 47.8438 10.4688C48.2396 11.4479 48.4375 12.4792 48.4375 13.5625C48.4375 14.6458 48.2396 15.6667 47.8438 16.625C47.4479 17.5833 46.8542 18.4583 46.0625 19.25ZM51.375 40.5C51.2083 40.7083 51.1458 40.9375 51.1875 41.1875C51.2292 41.4375 51.3542 41.6458 51.5625 41.8125C51.7708 41.9375 52 41.9896 52.25 41.9688C52.5 41.9479 52.7083 41.8333 52.875 41.625C52.9167 41.5833 52.9479 41.5417 52.9688 41.5C52.9896 41.4583 53.0208 41.4167 53.0625 41.375C54.0208 40 54.3646 38.625 54.0938 37.25C53.8229 35.875 53.25 34.75 52.375 33.875C51.5 32.9583 50.375 32.3646 49 32.0938C47.625 31.8229 46.2292 32.1875 44.8125 33.1875C44.6042 33.3542 44.3854 33.5312 44.1562 33.7188C43.9271 33.9062 43.7083 34.1042 43.5 34.3125C42.2083 35.5625 41.3333 37.0625 40.875 38.8125C40.4167 40.5625 40.3958 42.3125 40.8125 44.0625L38.3125 46.5625L35.875 44.0625C36.2917 42.3125 36.2708 40.5625 35.8125 38.8125C35.3542 37.0625 34.4792 35.5625 33.1875 34.3125C32.9792 34.1042 32.7604 33.9062 32.5312 33.7188C32.3021 33.5312 32.0833 33.3542 31.875 33.1875C31.4167 32.8542 30.9688 32.6042 30.5312 32.4375C30.0938 32.2708 29.6458 32.1667 29.1875 32.125C28.1875 30.875 27.0417 29.8021 25.75 28.9062C24.4583 28.0104 23.0625 27.3333 21.5625 26.875V23.375C21.5625 23.125 21.4688 22.9062 21.2812 22.7188C21.0938 22.5312 20.875 22.4375 20.625 22.4375C20.375 22.4375 20.1562 22.5312 19.9688 22.7188C19.7812 22.9062 19.6875 23.125 19.6875 23.375V27.0625C19.6875 27.4375 19.7917 27.7604 20 28.0312C20.2083 28.3021 20.4792 28.4792 20.8125 28.5625C21.9375 28.9375 23.0208 29.4375 24.0625 30.0625C25.1042 30.6875 26.0417 31.4375 26.875 32.3125C26.375 32.4792 25.9062 32.6875 25.4688 32.9375C25.0312 33.1875 24.6458 33.5 24.3125 33.875C24.1458 34 24 34.1458 23.875 34.3125C23.75 34.4792 23.625 34.6667 23.5 34.875H7.0625C6.77083 34.875 6.51042 34.9375 6.28125 35.0625C6.05208 35.1875 5.85417 35.375 5.6875 35.625C5.0625 36.625 4.57292 37.7083 4.21875 38.875C3.86458 40.0417 3.6875 41.2292 3.6875 42.4375C3.6875 44.1875 4.02083 45.8542 4.6875 47.4375C5.35417 48.9792 6.27083 50.3229 7.4375 51.4688C8.60417 52.6146 9.95833 53.5208 11.5 54.1875C13.0417 54.8542 14.6875 55.1875 16.4375 55.1875C19.4792 55.1875 22.1562 54.2396 24.4688 52.3438C26.7812 50.4479 28.25 48.0625 28.875 45.1875C29.1667 45.3125 29.4583 45.4062 29.75 45.4688C30.0417 45.5312 30.3333 45.5833 30.625 45.625C30.3333 46.9583 29.8542 48.2396 29.1875 49.4688C28.5208 50.6979 27.6667 51.8125 26.625 52.8125C25.25 54.1875 23.6562 55.2396 21.8438 55.9688C20.0312 56.6979 18.1458 57.0417 16.1875 57C14.3125 57 12.5 56.625 10.75 55.875C9 55.125 7.45833 54.0625 6.125 52.6875C4.79167 51.3542 3.75 49.8125 3 48.0625C2.25 46.3125 1.875 44.5 1.875 42.625C1.875 41 2.11458 39.4479 2.59375 37.9688C3.07292 36.4896 3.77083 35.1042 4.6875 33.8125C5.60417 32.5625 6.69792 31.4896 7.96875 30.5938C9.23958 29.6979 10.6042 29.0208 12.0625 28.5625C12.3958 28.4792 12.6667 28.3021 12.875 28.0312C13.0833 27.7604 13.1875 27.4375 13.1875 27.0625V16.4375H19.6875V18.9375C19.6875 19.1875 19.7812 19.4062 19.9688 19.5938C20.1562 19.7812 20.375 19.875 20.625 19.875C20.875 19.875 21.0938 19.7812 21.2812 19.5938C21.4688 19.4062 21.5625 19.1875 21.5625 18.9375V16.4375H22.375C23 16.4375 23.5208 16.2292 23.9375 15.8125C24.3542 15.3958 24.5625 14.875 24.5625 14.25V11.6875C24.5625 11.1042 24.3542 10.5938 23.9375 10.1562C23.5208 9.71875 23 9.5 22.375 9.5H10.4375C9.85417 9.5 9.34375 9.71875 8.90625 10.1562C8.46875 10.5938 8.25 11.1042 8.25 11.6875V14.25C8.25 14.875 8.46875 15.3958 8.90625 15.8125C9.34375 16.2292 9.85417 16.4375 10.4375 16.4375H11.3125V26.875C9.6875 27.375 8.1875 28.1354 6.8125 29.1562C5.4375 30.1771 4.22917 31.3542 3.1875 32.6875C2.14583 34.1458 1.35417 35.7188 0.8125 37.4062C0.270833 39.0938 0 40.8333 0 42.625C0.0416667 44.75 0.46875 46.8021 1.28125 48.7812C2.09375 50.7604 3.27083 52.5208 4.8125 54.0625C6.3125 55.5625 8.04167 56.7292 10 57.5625C11.9583 58.3958 14.0208 58.8333 16.1875 58.875C16.2292 58.875 16.2708 58.875 16.3125 58.875C16.3542 58.875 16.3958 58.875 16.4375 58.875C17.6875 58.875 18.9062 58.7396 20.0938 58.4688C21.2812 58.1979 22.4167 57.8125 23.5 57.3125H52.125C52.375 57.3125 52.5938 57.2188 52.7812 57.0312C52.9688 56.8438 53.0625 56.625 53.0625 56.375C53.0625 56.125 52.9688 55.9062 52.7812 55.7188C52.5938 55.5312 52.375 55.4375 52.125 55.4375H39.25V48.25L42.125 45.375C42.5417 45.5 42.9583 45.5833 43.375 45.625C43.7917 45.6667 44.2083 45.6875 44.625 45.6875C45.4167 45.6875 46.1875 45.6042 46.9375 45.4375C47.6875 45.2708 48.4167 45.0208 49.125 44.6875C49.375 44.5625 49.5417 44.375 49.625 44.125C49.7083 43.875 49.6875 43.6458 49.5625 43.4375C49.4792 43.1875 49.3125 43.0208 49.0625 42.9375C48.8125 42.8542 48.5625 42.875 48.3125 43C47.6042 43.3333 46.8646 43.5729 46.0938 43.7188C45.3229 43.8646 44.5417 43.8958 43.75 43.8125L48.25 39.3125C48.4167 39.1458 48.5 38.9271 48.5 38.6562C48.5 38.3854 48.4167 38.1667 48.25 38C48.0417 37.7917 47.8125 37.6875 47.5625 37.6875C47.3125 37.6875 47.0833 37.7917 46.875 38L42.4375 42.4375C42.3125 41.1875 42.4583 39.9688 42.875 38.7812C43.2917 37.5938 43.9583 36.5417 44.875 35.625C45.0417 35.4583 45.2083 35.3021 45.375 35.1562C45.5417 35.0104 45.7292 34.8542 45.9375 34.6875C46.9375 33.9792 47.8958 33.7396 48.8125 33.9688C49.7292 34.1979 50.4792 34.6042 51.0625 35.1875C51.6042 35.7292 51.9896 36.4688 52.2188 37.4062C52.4479 38.3438 52.2083 39.3125 51.5 40.3125C51.5 40.3125 51.4896 40.3333 51.4688 40.375C51.4479 40.4167 51.4167 40.4583 51.375 40.5ZM10.4375 14.5625C10.3542 14.5625 10.2812 14.5312 10.2188 14.4688C10.1562 14.4062 10.125 14.3333 10.125 14.25V11.6875C10.125 11.6042 10.1562 11.5312 10.2188 11.4688C10.2812 11.4062 10.3542 11.375 10.4375 11.375H22.375C22.4583 11.375 22.5312 11.4062 22.5938 11.4688C22.6562 11.5312 22.6875 11.6042 22.6875 11.6875V14.25C22.6875 14.3333 22.6562 14.4062 22.5938 14.4688C22.5312 14.5312 22.4583 14.5625 22.375 14.5625H10.4375ZM7.1875 36.75H22.6875C22.6042 37.0417 22.5521 37.3438 22.5312 37.6562C22.5104 37.9688 22.5208 38.2917 22.5625 38.625H6.3125C6.39583 38.2917 6.52083 37.9688 6.6875 37.6562C6.85417 37.3438 7.02083 37.0417 7.1875 36.75ZM16.4375 53.3125C13.4375 53.3125 10.875 52.25 8.75 50.125C6.625 48 5.5625 45.4375 5.5625 42.4375C5.5625 42.1042 5.58333 41.7708 5.625 41.4375C5.66667 41.1042 5.70833 40.7917 5.75 40.5H23.125C23.2083 40.625 23.2917 40.7604 23.375 40.9062C23.4583 41.0521 23.5417 41.2083 23.625 41.375C23.7917 41.625 23.9688 41.8542 24.1562 42.0625C24.3438 42.2708 24.5417 42.4792 24.75 42.6875C25.125 43.0208 25.5104 43.3438 25.9062 43.6562C26.3021 43.9688 26.7083 44.2292 27.125 44.4375C26.6667 46.9792 25.4375 49.0938 23.4375 50.7812C21.4375 52.4688 19.1042 53.3125 16.4375 53.3125ZM26.0625 41.375C25.8958 41.2083 25.7396 41.0312 25.5938 40.8438C25.4479 40.6562 25.3125 40.4792 25.1875 40.3125C24.4792 39.3125 24.2396 38.3438 24.4688 37.4062C24.6979 36.4688 25.0833 35.7292 25.625 35.1875C25.9583 34.8542 26.375 34.5625 26.875 34.3125C27.375 34.0625 27.9167 33.9375 28.5 33.9375C28.875 33.9375 29.25 34 29.625 34.125C30 34.25 30.375 34.4375 30.75 34.6875C30.9583 34.8542 31.1458 35.0104 31.3125 35.1562C31.4792 35.3021 31.6458 35.4583 31.8125 35.625C32.7292 36.5417 33.3958 37.5938 33.8125 38.7812C34.2292 39.9688 34.375 41.1875 34.25 42.4375L29.8125 38C29.6042 37.7917 29.375 37.6875 29.125 37.6875C28.875 37.6875 28.6458 37.7917 28.4375 38C28.2708 38.1667 28.1875 38.3854 28.1875 38.6562C28.1875 38.9271 28.2708 39.1458 28.4375 39.3125L32.9375 43.8125C31.6875 43.9375 30.4583 43.7917 29.25 43.375C28.0417 42.9583 26.9792 42.2917 26.0625 41.375ZM37.375 55.4375H26.5C26.75 55.2292 27 55.0208 27.25 54.8125C27.5 54.6042 27.7292 54.3958 27.9375 54.1875C29.1458 53.0208 30.1354 51.7083 30.9062 50.25C31.6771 48.7917 32.2292 47.2708 32.5625 45.6875C32.8958 45.6875 33.2292 45.6562 33.5625 45.5938C33.8958 45.5312 34.2292 45.4583 34.5625 45.375L37.375 48.25V55.4375ZM14.1875 45.1875C14.1875 45.4375 14.0938 45.6562 13.9062 45.8438C13.7188 46.0312 13.5 46.125 13.25 46.125C13 46.125 12.7812 46.0312 12.5938 45.8438C12.4062 45.6562 12.3125 45.4375 12.3125 45.1875C12.3125 44.9375 12.4062 44.7188 12.5938 44.5312C12.7812 44.3438 13 44.25 13.25 44.25C13.5 44.25 13.7188 44.3438 13.9062 44.5312C14.0938 44.7188 14.1875 44.9375 14.1875 45.1875ZM18.5625 49.3125C18.5625 49.5625 18.4688 49.7812 18.2812 49.9688C18.0938 50.1562 17.875 50.25 17.625 50.25C17.375 50.25 17.1562 50.1562 16.9688 49.9688C16.7812 49.7812 16.6875 49.5625 16.6875 49.3125C16.6875 49.0625 16.7812 48.8438 16.9688 48.6562C17.1562 48.4688 17.375 48.375 17.625 48.375C17.875 48.375 18.0938 48.4688 18.2812 48.6562C18.4688 48.8438 18.5625 49.0625 18.5625 49.3125ZM20.3125 43.3125C20.3125 43.5625 20.2188 43.7812 20.0312 43.9688C19.8438 44.1562 19.625 44.25 19.375 44.25C19.125 44.25 18.9062 44.1562 18.7188 43.9688C18.5312 43.7812 18.4375 43.5625 18.4375 43.3125C18.4375 43.0625 18.5312 42.8438 18.7188 42.6562C18.9062 42.4688 19.125 42.375 19.375 42.375C19.625 42.375 19.8438 42.4688 20.0312 42.6562C20.2188 42.8438 20.3125 43.0625 20.3125 43.3125Z" fill="#EEC044"/>
</svg>
