<svg width="60" height="60" viewBox="0 0 60 60" fill="none" xmlns="http://www.w3.org/2000/svg">
<path d="M16 58H14.1875C12.9375 58 11.8438 57.5938 10.9062 56.7812C9.96875 55.9688 9.41667 54.9583 9.25 53.75V53.6875L6.5625 34.875C6.52083 34.625 6.40625 34.4167 6.21875 34.25C6.03125 34.0833 5.8125 34 5.5625 34C5.3125 34 5.08333 34.0938 4.875 34.2812C4.66667 34.4688 4.5625 34.7083 4.5625 35C4.5625 35.0417 4.5625 35.0729 4.5625 35.0938C4.5625 35.1146 4.5625 35.125 4.5625 35.125L7.25 54C7.54167 55.7083 8.33333 57.1354 9.625 58.2812C10.9167 59.4271 12.4375 60 14.1875 60H16C16.2917 60 16.5312 59.9062 16.7188 59.7188C16.9062 59.5312 17 59.2917 17 59C17 58.7083 16.9062 58.4688 16.7188 58.2812C16.5312 58.0938 16.2917 58 16 58ZM28 48C27.7083 48 27.4688 48.0938 27.2812 48.2812C27.0938 48.4688 27 48.7083 27 49V53C27 53.8333 27.2917 54.5417 27.875 55.125C28.4583 55.7083 29.1667 56 30 56C30.8333 56 31.5417 55.7083 32.125 55.125C32.7083 54.5417 33 53.8333 33 53V41C33 40.1667 32.7083 39.4583 32.125 38.875C31.5417 38.2917 30.8333 38 30 38C29.1667 38 28.4583 38.2917 27.875 38.875C27.2917 39.4583 27 40.1667 27 41V45C27 45.2917 27.0938 45.5312 27.2812 45.7188C27.4688 45.9062 27.7083 46 28 46C28.2917 46 28.5312 45.9062 28.7188 45.7188C28.9062 45.5312 29 45.2917 29 45V41C29 40.7083 29.0938 40.4688 29.2812 40.2812C29.4688 40.0938 29.7083 40 30 40C30.2917 40 30.5312 40.0938 30.7188 40.2812C30.9062 40.4688 31 40.7083 31 41V53C31 53.2917 30.9062 53.5312 30.7188 53.7188C30.5312 53.9062 30.2917 54 30 54C29.7083 54 29.4688 53.9062 29.2812 53.7188C29.0938 53.5312 29 53.2917 29 53V49C29 48.7083 28.9062 48.4688 28.7188 48.2812C28.5312 48.0938 28.2917 48 28 48ZM14 38C13.1667 38 12.4583 38.2917 11.875 38.875C11.2917 39.4583 11 40.1667 11 41V53C11 53.8333 11.2917 54.5417 11.875 55.125C12.4583 55.7083 13.1667 56 14 56C14.8333 56 15.5417 55.7083 16.125 55.125C16.7083 54.5417 17 53.8333 17 53V41C17 40.1667 16.7083 39.4583 16.125 38.875C15.5417 38.2917 14.8333 38 14 38ZM15 53C15 53.2917 14.9062 53.5312 14.7188 53.7188C14.5312 53.9062 14.2917 54 14 54C13.7083 54 13.4688 53.9062 13.2812 53.7188C13.0938 53.5312 13 53.2917 13 53V41C13 40.7083 13.0938 40.4688 13.2812 40.2812C13.4688 40.0938 13.7083 40 14 40C14.2917 40 14.5312 40.0938 14.7188 40.2812C14.9062 40.4688 15 40.7083 15 41V53ZM19 41V53C19 53.8333 19.2917 54.5417 19.875 55.125C20.4583 55.7083 21.1667 56 22 56C22.8333 56 23.5417 55.7083 24.125 55.125C24.7083 54.5417 25 53.8333 25 53V41C25 40.1667 24.7083 39.4583 24.125 38.875C23.5417 38.2917 22.8333 38 22 38C21.1667 38 20.4583 38.2917 19.875 38.875C19.2917 39.4583 19 40.1667 19 41ZM23 41V53C23 53.2917 22.9062 53.5312 22.7188 53.7188C22.5312 53.9062 22.2917 54 22 54C21.7083 54 21.4688 53.9062 21.2812 53.7188C21.0938 53.5312 21 53.2917 21 53V41C21 40.7083 21.0938 40.4688 21.2812 40.2812C21.4688 40.0938 21.7083 40 22 40C22.2917 40 22.5312 40.0938 22.7188 40.2812C22.9062 40.4688 23 40.7083 23 41ZM44 36C44.2917 36 44.5312 35.9062 44.7188 35.7188C44.9062 35.5312 45 35.2917 45 35C45 34.7083 44.9062 34.4688 44.7188 34.2812C44.5312 34.0938 44.2917 34 44 34H37C36.7083 34 36.4688 34.0938 36.2812 34.2812C36.0938 34.4688 36 34.7083 36 35C36 35.2917 36.0938 35.5312 36.2812 35.7188C36.4688 35.9062 36.7083 36 37 36H44ZM23 34H11C10.7083 34 10.4688 34.0938 10.2812 34.2812C10.0938 34.4688 10 34.7083 10 35C10 35.2917 10.0938 35.5312 10.2812 35.7188C10.4688 35.9062 10.7083 36 11 36H23C23.2917 36 23.5312 35.9062 23.7188 35.7188C23.9062 35.5312 24 35.2917 24 35C24 34.7083 23.9062 34.4688 23.7188 34.2812C23.5312 34.0938 23.2917 34 23 34ZM55.9375 41.0625C56.5625 40.6042 57.0625 40.0208 57.4375 39.3125C57.8125 38.6042 58 37.8333 58 37C58 36.7083 57.9062 36.4688 57.7188 36.2812C57.5312 36.0938 57.2917 36 57 36H55.3125L55.875 32H57C57.8333 32 58.5417 31.7083 59.125 31.125C59.7083 30.5417 60 29.8333 60 29C60 28.1667 59.7083 27.4583 59.125 26.875C58.5417 26.2917 57.8333 26 57 26H50.75L51.625 24.0625C51.9583 24.3125 52.3229 24.5104 52.7188 24.6562C53.1146 24.8021 53.5417 24.875 54 24.875C54.9167 24.875 55.7292 24.6042 56.4375 24.0625C57.1458 23.5208 57.625 22.8125 57.875 21.9375C57.9167 21.7708 57.9479 21.6042 57.9688 21.4375C57.9896 21.2708 58 21.1042 58 20.9375C58 20.8958 58 20.8646 58 20.8438C58 20.8229 58 20.7917 58 20.75C58.5833 20.4167 59.0625 19.9375 59.4375 19.3125C59.8125 18.6875 60 18.0208 60 17.3125C60 16.7292 59.8854 16.1771 59.6562 15.6562C59.4271 15.1354 59.1042 14.6875 58.6875 14.3125C58.7708 14.1458 58.8646 13.9479 58.9688 13.7188C59.0729 13.4896 59.1458 13.25 59.1875 13H59.25C59.2917 12.75 59.3333 12.4896 59.375 12.2188C59.4167 11.9479 59.4375 11.6875 59.4375 11.4375C59.4375 10.6042 59.2812 9.82292 58.9688 9.09375C58.6562 8.36458 58.2292 7.72917 57.6875 7.1875C57.6042 7.10417 57.5 7.04167 57.375 7C57.25 6.95833 57.125 6.9375 57 6.9375C56.7083 6.9375 56.4688 7.03125 56.2812 7.21875C56.0938 7.40625 56 7.64583 56 7.9375C56 8.0625 56.0208 8.1875 56.0625 8.3125C56.1042 8.4375 56.1875 8.54167 56.3125 8.625C56.6458 9 56.9167 9.42708 57.125 9.90625C57.3333 10.3854 57.4375 10.8958 57.4375 11.4375C57.4375 12.2708 57.1979 13.0312 56.7188 13.7188C56.2396 14.4062 55.6042 14.875 54.8125 15.125V15.1875C54.6458 15.2292 54.5 15.3333 54.375 15.5C54.25 15.6667 54.1875 15.8542 54.1875 16.0625C54.1875 16.1875 54.1771 16.3125 54.1562 16.4375C54.1354 16.5625 54.1042 16.6875 54.0625 16.8125V16.75C53.8958 17.4167 53.5417 17.9583 53 18.375C52.4583 18.7917 51.8542 19 51.1875 19C50.4792 19 49.8646 18.7917 49.3438 18.375C48.8229 17.9583 48.4792 17.4375 48.3125 16.8125C48.3125 16.8125 48.3125 16.7917 48.3125 16.75C48.2708 16.6667 48.2396 16.5521 48.2188 16.4062C48.1979 16.2604 48.1875 16.125 48.1875 16C48.1875 15.4583 48.3229 14.9583 48.5938 14.5C48.8646 14.0417 49.2083 13.6667 49.625 13.375H49.6875C49.8125 13.2917 49.9271 13.1771 50.0312 13.0312C50.1354 12.8854 50.1875 12.7083 50.1875 12.5C50.1875 12.25 50.0833 12.0208 49.875 11.8125C49.6667 11.6042 49.4375 11.5 49.1875 11.5C49.0625 11.5 48.9583 11.5208 48.875 11.5625C48.7917 11.6042 48.7292 11.6458 48.6875 11.6875C47.9375 12.1042 47.3333 12.6979 46.875 13.4688C46.4167 14.2396 46.1875 15.0833 46.1875 16C46.1875 16.0417 46.1875 16.1042 46.1875 16.1875C46.1875 16.2708 46.1875 16.3542 46.1875 16.4375V16.375C46.1042 16.4167 46.0104 16.4375 45.9062 16.4375C45.8021 16.4375 45.6875 16.4375 45.5625 16.4375C45.4375 16.4375 45.3125 16.4375 45.1875 16.4375C45.0625 16.4375 44.9375 16.4167 44.8125 16.375H44.875C44.4167 16.25 44.0312 16.0521 43.7188 15.7812C43.4062 15.5104 43.1458 15.1875 42.9375 14.8125C42.9375 14.7708 42.9375 14.75 42.9375 14.75C42.8542 14.5417 42.7812 14.3333 42.7188 14.125C42.6562 13.9167 42.625 13.6875 42.625 13.4375C42.625 13.4375 42.625 13.4167 42.625 13.375C42.625 13.125 42.5312 12.8958 42.3438 12.6875C42.1562 12.4792 41.9167 12.375 41.625 12.375C41.375 12.375 41.1458 12.4688 40.9375 12.6562C40.7292 12.8438 40.625 13.0833 40.625 13.375C40.625 13.375 40.625 13.3854 40.625 13.4062C40.625 13.4271 40.625 13.4375 40.625 13.4375C40.625 13.6875 40.6458 13.9167 40.6875 14.125C40.7292 14.3333 40.7708 14.5417 40.8125 14.75C40.6458 14.7917 40.4792 14.8333 40.3125 14.875C40.1458 14.9167 39.9792 14.9375 39.8125 14.9375C39.6875 14.9375 39.5625 14.9271 39.4375 14.9062C39.3125 14.8854 39.1875 14.8542 39.0625 14.8125C38.7292 14.7292 38.4375 14.6042 38.1875 14.4375C37.9375 14.2708 37.7083 14.0625 37.5 13.8125V13.75C37.2917 13.5 37.125 13.2188 37 12.9062C36.875 12.5938 36.8125 12.2708 36.8125 11.9375C36.8125 11.2292 37.0312 10.6042 37.4688 10.0625C37.9062 9.52083 38.4375 9.16667 39.0625 9H39.125C39.2917 8.95833 39.4479 8.86458 39.5938 8.71875C39.7396 8.57292 39.8125 8.39583 39.8125 8.1875L39.875 8C39.875 7.95833 39.875 7.91667 39.875 7.875C39.875 7.83333 39.875 7.8125 39.875 7.8125C40.0833 7.10417 40.4375 6.5 40.9375 6C41.4375 5.5 42.0417 5.16667 42.75 5C42.75 5.125 42.7396 5.28125 42.7188 5.46875C42.6979 5.65625 42.6875 5.83333 42.6875 6C42.6875 6.54167 42.7604 7.07292 42.9062 7.59375C43.0521 8.11458 43.25 8.58333 43.5 9C43.5833 9.16667 43.6979 9.29167 43.8438 9.375C43.9896 9.45833 44.1458 9.5 44.3125 9.5C44.6042 9.5 44.8438 9.40625 45.0312 9.21875C45.2188 9.03125 45.3125 8.79167 45.3125 8.5C45.3125 8.41667 45.3021 8.33333 45.2812 8.25C45.2604 8.16667 45.2292 8.08333 45.1875 8C45.0208 7.70833 44.8958 7.39583 44.8125 7.0625C44.7292 6.72917 44.6875 6.375 44.6875 6C44.6875 5.70833 44.7188 5.41667 44.7812 5.125C44.8438 4.83333 44.9375 4.54167 45.0625 4.25C45.3958 3.58333 45.8854 3.04167 46.5312 2.625C47.1771 2.20833 47.8958 2 48.6875 2C49.7708 2 50.7083 2.38542 51.5 3.15625C52.2917 3.92708 52.6875 4.875 52.6875 6C52.6875 6.04167 52.6771 6.09375 52.6562 6.15625C52.6354 6.21875 52.625 6.29167 52.625 6.375V6.3125C52.625 6.35417 52.625 6.375 52.625 6.375C52.625 6.66667 52.7292 6.90625 52.9375 7.09375C53.1458 7.28125 53.375 7.375 53.625 7.375C53.875 7.375 54.0938 7.29167 54.2812 7.125C54.4688 6.95833 54.5833 6.75 54.625 6.5C54.625 6.41667 54.6354 6.33333 54.6562 6.25C54.6771 6.16667 54.6875 6.08333 54.6875 6C54.6875 4.33333 54.0938 2.91667 52.9062 1.75C51.7188 0.583333 50.3125 0 48.6875 0C47.6042 0 46.6146 0.260417 45.7188 0.78125C44.8229 1.30208 44.1042 1.97917 43.5625 2.8125C42.2292 2.85417 41.0521 3.29167 40.0312 4.125C39.0104 4.95833 38.3333 6 38 7.25V7.3125C37.0417 7.6875 36.2812 8.28125 35.7188 9.09375C35.1562 9.90625 34.875 10.8333 34.875 11.875C34.875 12.3333 34.9271 12.7604 35.0312 13.1562C35.1354 13.5521 35.2708 13.9375 35.4375 14.3125V14.25C35.3542 14.375 35.2604 14.5104 35.1562 14.6562C35.0521 14.8021 34.9792 14.9375 34.9375 15.0625L34.875 15.125L34.0625 13.3125C33.7292 12.6042 33.2708 11.9896 32.6875 11.4688C32.1042 10.9479 31.4375 10.5833 30.6875 10.375L30.625 10.3125C30.5417 10.2708 30.4271 10.2396 30.2812 10.2188C30.1354 10.1979 30 10.1875 29.875 10.1875L29.8125 10.125L29.5 4.8125C29.5 4.5625 29.3958 4.34375 29.1875 4.15625C28.9792 3.96875 28.75 3.875 28.5 3.875C28.2083 3.875 27.9688 3.96875 27.7812 4.15625C27.5938 4.34375 27.5 4.58333 27.5 4.875C27.5 4.875 27.5 4.88542 27.5 4.90625C27.5 4.92708 27.5 4.9375 27.5 4.9375L27.8125 10.1875C27.6458 10.2292 27.4792 10.2812 27.3125 10.3438C27.1458 10.4062 26.9792 10.4583 26.8125 10.5H26.875L25.5 5.75C25.4583 5.54167 25.3438 5.36458 25.1562 5.21875C24.9688 5.07292 24.7708 5 24.5625 5C24.2708 5 24.0312 5.09375 23.8438 5.28125C23.6562 5.46875 23.5625 5.70833 23.5625 6C23.5625 6.04167 23.5625 6.08333 23.5625 6.125C23.5625 6.16667 23.5625 6.22917 23.5625 6.3125V6.25L23.625 6.375L23.5 6.3125C23.4167 6.22917 23.3125 6.15625 23.1875 6.09375C23.0625 6.03125 22.9375 6 22.8125 6C22.6875 6 22.5625 6.02083 22.4375 6.0625C22.3125 6.10417 22.2083 6.1875 22.125 6.3125V6.25L19.125 9.125C19.0417 9.25 18.9688 9.36458 18.9062 9.46875C18.8438 9.57292 18.8125 9.70833 18.8125 9.875C18.8125 10.0417 18.8542 10.1979 18.9375 10.3438C19.0208 10.4896 19.1458 10.6042 19.3125 10.6875L23.75 13.625C23.7083 13.75 23.6667 13.875 23.625 14C23.5833 14.125 23.5417 14.2708 23.5 14.4375C23.4583 14.6458 23.4271 14.8542 23.4062 15.0625C23.3854 15.2708 23.375 15.4792 23.375 15.6875C23.375 15.7708 23.375 15.8542 23.375 15.9375C23.375 16.0208 23.375 16.1042 23.375 16.1875C22.625 16.3125 21.9167 16.5312 21.25 16.8438C20.5833 17.1562 19.9583 17.5417 19.375 18L18.6875 17.3125C18.6042 17.2292 18.5 17.1562 18.375 17.0938C18.25 17.0312 18.125 17 18 17C17.75 17 17.5208 17.1042 17.3125 17.3125C17.1042 17.5208 17 17.75 17 18C17 18.125 17.0312 18.25 17.0938 18.375C17.1562 18.5 17.2292 18.6042 17.3125 18.6875L17.375 18.75C16.5417 18.9583 15.8229 19.3333 15.2188 19.875C14.6146 20.4167 14.1667 21.0833 13.875 21.875H13.8125L13.75 22.1875L11.3125 21.375C11.2708 21.3333 11.2292 21.3125 11.1875 21.3125C11.1458 21.3125 11.0833 21.3125 11 21.3125C10.7083 21.3125 10.4688 21.4062 10.2812 21.5938C10.0938 21.7812 10 22.0208 10 22.3125C10 22.5208 10.0625 22.7083 10.1875 22.875C10.3125 23.0417 10.4792 23.1667 10.6875 23.25L30.8125 30.1875C30.9792 30.2708 31.125 30.3958 31.25 30.5625C31.375 30.7292 31.4375 30.9375 31.4375 31.1875C31.4375 31.4375 31.3438 31.6667 31.1562 31.875C30.9688 32.0833 30.7292 32.1875 30.4375 32.1875C30.3958 32.1875 30.3438 32.1771 30.2812 32.1562C30.2188 32.1354 30.1667 32.125 30.125 32.125L3.6875 22.9375C3.47917 22.8542 3.3125 22.7292 3.1875 22.5625C3.0625 22.3958 3 22.2083 3 22C3 21.7917 3.05208 21.6146 3.15625 21.4688C3.26042 21.3229 3.39583 21.2083 3.5625 21.125C3.64583 21.0833 3.71875 21.0521 3.78125 21.0312C3.84375 21.0104 3.91667 21 4 21C4.04167 21 4.09375 21 4.15625 21C4.21875 21 4.27083 21.0208 4.3125 21.0625L6.875 21.9375C6.95833 21.9792 7.03125 22 7.09375 22C7.15625 22 7.20833 22 7.25 22C7.54167 22 7.78125 21.9062 7.96875 21.7188C8.15625 21.5312 8.25 21.2917 8.25 21C8.25 20.7917 8.1875 20.6042 8.0625 20.4375C7.9375 20.2708 7.77083 20.1458 7.5625 20.0625L5 19.1875C4.83333 19.1042 4.66667 19.0521 4.5 19.0312C4.33333 19.0104 4.14583 19 3.9375 19C3.14583 19 2.44792 19.2917 1.84375 19.875C1.23958 20.4583 0.9375 21.1667 0.9375 22C0.9375 22.6667 1.13542 23.25 1.53125 23.75C1.92708 24.25 2.41667 24.6042 3 24.8125L6.375 26H3C2.16667 26 1.45833 26.2917 0.875 26.875C0.291667 27.4583 0 28.1667 0 29C0 29.8333 0.291667 30.5417 0.875 31.125C1.45833 31.7083 2.16667 32 3 32H23.6875L29.5 34C29.625 34.0417 29.7708 34.0833 29.9375 34.125C30.1042 34.1667 30.2917 34.1875 30.5 34.1875C31.3333 34.1875 32.0417 33.8958 32.625 33.3125C33.2083 32.7292 33.5 32.0208 33.5 31.1875C33.5 30.5208 33.3021 29.9271 32.9062 29.4062C32.5104 28.8854 32.0208 28.5208 31.4375 28.3125L30.5 28H57C57.2917 28 57.5312 28.0938 57.7188 28.2812C57.9062 28.4688 58 28.7083 58 29C58 29.2917 57.9062 29.5312 57.7188 29.7188C57.5312 29.9062 57.2917 30 57 30H36.4375C36.1875 30 35.9583 30.0938 35.75 30.2812C35.5417 30.4688 35.4375 30.7083 35.4375 31C35.4375 31.2917 35.5417 31.5312 35.75 31.7188C35.9583 31.9062 36.1875 32 36.4375 32H53.875L53.25 36.3125C52.9583 36.4375 52.6875 36.5833 52.4375 36.75C52.1875 36.9167 51.9583 37.0833 51.75 37.25V37.125C51.75 37.0417 51.75 36.9792 51.75 36.9375C51.75 36.8958 51.75 36.8333 51.75 36.75C51.75 36.4167 51.6875 36.0938 51.5625 35.7812C51.4375 35.4688 51.2708 35.1875 51.0625 34.9375C50.8125 34.6458 50.5104 34.4271 50.1562 34.2812C49.8021 34.1354 49.4167 34.0625 49 34.0625C48.5833 34.0625 48.1979 34.1354 47.8438 34.2812C47.4896 34.4271 47.1875 34.6458 46.9375 34.9375C46.7292 35.1875 46.5625 35.4688 46.4375 35.7812C46.3125 36.0938 46.25 36.4167 46.25 36.75C46.25 36.8333 46.25 36.9062 46.25 36.9688C46.25 37.0312 46.25 37.0833 46.25 37.125L46.625 40.0625C46.5 40.0208 46.3854 40 46.2812 40C46.1771 40 46.0833 40 46 40C45.0417 40 44.1354 40.1562 43.2812 40.4688C42.4271 40.7812 41.6667 41.2083 41 41.75V41C41 40.1667 40.7083 39.4583 40.125 38.875C39.5417 38.2917 38.8333 38 38 38C37.1667 38 36.4583 38.2917 35.875 38.875C35.2917 39.4583 35 40.1667 35 41V53C35 53.8333 35.2917 54.5417 35.875 55.125C36.4583 55.7083 37.1667 56 38 56C38.375 56 38.7396 55.9271 39.0938 55.7812C39.4479 55.6354 39.7708 55.4375 40.0625 55.1875C40.3125 55.7292 40.6042 56.2292 40.9375 56.6875C41.2708 57.1458 41.625 57.5833 42 58H20C19.7083 58 19.4688 58.0938 19.2812 58.2812C19.0938 58.4688 19 58.7083 19 59C19 59.2917 19.0938 59.5312 19.2812 59.7188C19.4688 59.9062 19.7083 60 20 60H45.8125C45.8125 60 45.8333 60 45.875 60C45.9167 60 45.9479 60 45.9688 60C45.9896 60 46 60 46 60C46.5417 60 47.0729 59.9479 47.5938 59.8438C48.1146 59.7396 48.6042 59.5833 49.0625 59.375L49 59.4375C49.4583 59.6042 49.9375 59.7396 50.4375 59.8438C50.9375 59.9479 51.4583 60 52 60C52.9167 60 53.8021 59.7083 54.6562 59.125C55.5104 58.5417 56.3125 57.7083 57.0625 56.625C57.1458 56.5417 57.1979 56.4479 57.2188 56.3438C57.2396 56.2396 57.25 56.1458 57.25 56.0625C57.25 55.7708 57.1562 55.5312 56.9688 55.3438C56.7812 55.1562 56.5417 55.0625 56.25 55.0625C56.0833 55.0625 55.9271 55.0938 55.7812 55.1562C55.6354 55.2188 55.5208 55.3333 55.4375 55.5C54.8958 56.2917 54.3229 56.9062 53.7188 57.3438C53.1146 57.7812 52.5417 58 52 58C51.5417 58 51.0938 57.9479 50.6562 57.8438C50.2188 57.7396 49.7917 57.5833 49.375 57.375L49.4375 57.4375C49.3542 57.3958 49.2812 57.3646 49.2188 57.3438C49.1562 57.3229 49.0833 57.3125 49 57.3125C48.9167 57.3125 48.8438 57.3229 48.7812 57.3438C48.7188 57.3646 48.6458 57.3958 48.5625 57.4375C48.1875 57.6042 47.7812 57.7396 47.3438 57.8438C46.9062 57.9479 46.4583 58 46 58C46 58 45.9896 58 45.9688 58C45.9479 58 45.9375 58 45.9375 58C44.4375 57.9583 43.0729 56.7396 41.8438 54.3438C40.6146 51.9479 40 49.8333 40 48C40 46.3333 40.5833 44.9167 41.75 43.75C42.9167 42.5833 44.3333 42 46 42C46.1667 42 46.3229 42.0104 46.4688 42.0312C46.6146 42.0521 46.7708 42.0625 46.9375 42.0625H46.875V42.125C46.9583 42.6667 47.1979 43.1146 47.5938 43.4688C47.9896 43.8229 48.4583 44 49 44C49.5417 44 50.0104 43.8229 50.4062 43.4688C50.8021 43.1146 51.0417 42.6667 51.125 42.125V42.0625C51.25 42.0625 51.3854 42.0521 51.5312 42.0312C51.6771 42.0104 51.8333 42 52 42C53.6667 42 55.0833 42.5833 56.25 43.75C57.4167 44.9167 58 46.3333 58 48C57.9583 48.75 57.8646 49.4792 57.7188 50.1875C57.5729 50.8958 57.375 51.5625 57.125 52.1875V52.125C57.125 52.1667 57.1146 52.2188 57.0938 52.2812C57.0729 52.3438 57.0625 52.4167 57.0625 52.5C57.0625 52.7917 57.1562 53.0312 57.3438 53.2188C57.5312 53.4062 57.7708 53.5 58.0625 53.5C58.2708 53.5 58.4688 53.4375 58.6562 53.3125C58.8438 53.1875 58.9583 53.0208 59 52.8125C59.2917 52.1042 59.5208 51.3438 59.6875 50.5312C59.8542 49.7188 59.9583 48.875 60 48C60 46.5 59.625 45.1354 58.875 43.9062C58.125 42.6771 57.1458 41.7292 55.9375 41.0625ZM3 30C2.70833 30 2.46875 29.9062 2.28125 29.7188C2.09375 29.5312 2 29.2917 2 29C2 28.7083 2.09375 28.4688 2.28125 28.2812C2.46875 28.0938 2.70833 28 3 28H12.1875L17.9375 30H3ZM56 17.3125C56 17.2292 56.0104 17.1458 56.0312 17.0625C56.0521 16.9792 56.0833 16.8958 56.125 16.8125V16.75C56.375 16.625 56.6042 16.4896 56.8125 16.3438C57.0208 16.1979 57.2292 16.0417 57.4375 15.875C57.6042 16.0417 57.7396 16.25 57.8438 16.5C57.9479 16.75 58 17.0208 58 17.3125C58 17.7292 57.8646 18.1146 57.5938 18.4688C57.3229 18.8229 57 19.0625 56.625 19.1875H56.5625C56.3542 19.2708 56.1875 19.3958 56.0625 19.5625C55.9375 19.7292 55.875 19.9167 55.875 20.125C55.875 20.1667 55.875 20.2083 55.875 20.25C55.875 20.2917 55.8958 20.3333 55.9375 20.375C55.9375 20.4583 55.9479 20.5417 55.9688 20.625C55.9896 20.7083 56 20.8125 56 20.9375C56 21.0208 55.9896 21.1042 55.9688 21.1875C55.9479 21.2708 55.9375 21.3542 55.9375 21.4375V21.375C55.8125 21.8333 55.5729 22.1979 55.2188 22.4688C54.8646 22.7396 54.4583 22.875 54 22.875C53.9167 22.875 53.8229 22.875 53.7188 22.875C53.6146 22.875 53.5208 22.8542 53.4375 22.8125H53.5C53.2917 22.7708 53.0938 22.6875 52.9062 22.5625C52.7188 22.4375 52.5625 22.2917 52.4375 22.125L53.125 20.5625C53.25 20.5208 53.3542 20.4792 53.4375 20.4375C53.5208 20.3958 53.6042 20.3542 53.6875 20.3125C54.2292 19.9792 54.7083 19.5521 55.125 19.0312C55.5417 18.5104 55.8333 17.9375 56 17.3125ZM50.8125 20.9375L48.5625 26H42.25L42.5 25.125C42.5 25.125 42.5104 25.0938 42.5312 25.0312C42.5521 24.9688 42.5625 24.9167 42.5625 24.875C42.5625 24.875 42.5521 24.8542 42.5312 24.8125C42.5104 24.7708 42.5 24.7292 42.5 24.6875L40.9375 16.8125C41.0625 16.7708 41.1979 16.7292 41.3438 16.6875C41.4896 16.6458 41.625 16.5833 41.75 16.5L41.6875 16.5625C41.9792 16.8958 42.2917 17.1875 42.625 17.4375C42.9583 17.6875 43.3125 17.8958 43.6875 18.0625H43.75L44.9375 24.125C44.9792 24.3333 45.0833 24.5104 45.25 24.6562C45.4167 24.8021 45.6042 24.875 45.8125 24.875C45.8542 24.875 45.875 24.875 45.875 24.875C45.875 24.875 45.8958 24.875 45.9375 24.875C46.1458 24.875 46.3333 24.8229 46.5 24.7188C46.6667 24.6146 46.7708 24.4792 46.8125 24.3125H46.875L48.75 20.3125C49.0417 20.5208 49.3542 20.6771 49.6875 20.7812C50.0208 20.8854 50.375 20.9375 50.75 20.9375H50.8125ZM46.75 18.3125C46.8333 18.4375 46.9062 18.5521 46.9688 18.6562C47.0312 18.7604 47.1042 18.8542 47.1875 18.9375L46.3125 20.75L45.875 18.4375C46.0417 18.4375 46.1979 18.4271 46.3438 18.4062C46.4896 18.3854 46.6458 18.3542 46.8125 18.3125H46.75ZM38.875 16.8125L39.25 18.625C39.125 18.6667 39 18.6979 38.875 18.7188C38.75 18.7396 38.625 18.75 38.5 18.75C38.4167 18.75 38.3333 18.7396 38.25 18.7188C38.1667 18.6979 38.0833 18.6875 38 18.6875C37.5833 18.5625 37.2396 18.3229 36.9688 17.9688C36.6979 17.6146 36.5625 17.2083 36.5625 16.75C36.5625 16.6667 36.5625 16.5729 36.5625 16.4688C36.5625 16.3646 36.5833 16.2708 36.625 16.1875V16.25C36.625 16.1667 36.6458 16.0938 36.6875 16.0312C36.7292 15.9688 36.75 15.9167 36.75 15.875C37 16.0833 37.2708 16.2604 37.5625 16.4062C37.8542 16.5521 38.1667 16.6667 38.5 16.75H38.5625C38.6042 16.75 38.6562 16.7604 38.7188 16.7812C38.7812 16.8021 38.8333 16.8125 38.875 16.8125ZM37.5 20.625C37.6667 20.6667 37.8333 20.6979 38 20.7188C38.1667 20.7396 38.3542 20.75 38.5625 20.75C38.7292 20.75 38.9167 20.7292 39.125 20.6875C39.3333 20.6458 39.5208 20.6042 39.6875 20.5625H39.625L40.5 24.875L40.1875 26H40L37.5 20.625ZM37.8125 26H35.8125C35.8542 26 35.8958 25.9896 35.9375 25.9688C35.9792 25.9479 36.0208 25.9375 36.0625 25.9375L37.4375 25.125L37.8125 26ZM30.9375 12.6875L29.875 13.3125C29.75 13.3958 29.6354 13.5104 29.5312 13.6562C29.4271 13.8021 29.375 13.9792 29.375 14.1875C29.375 14.4375 29.4792 14.6667 29.6875 14.875C29.8958 15.0833 30.125 15.1875 30.375 15.1875C30.5 15.1875 30.6042 15.1667 30.6875 15.125C30.7708 15.0833 30.8542 15.0417 30.9375 15H30.875L32.25 14.25L33.5625 16.9375L32.375 17.625C32.25 17.7083 32.1354 17.8229 32.0312 17.9688C31.9271 18.1146 31.875 18.2917 31.875 18.5C31.875 18.75 31.9792 18.9792 32.1875 19.1875C32.3958 19.3958 32.625 19.5 32.875 19.5C33 19.5 33.1042 19.4896 33.1875 19.4688C33.2708 19.4479 33.3542 19.4167 33.4375 19.375H33.375L34.4375 18.75L36.5625 23.3125L35.0625 24.1875C34.8958 24.2708 34.7708 24.3854 34.6875 24.5312C34.6042 24.6771 34.5625 24.8542 34.5625 25.0625C34.5625 25.2708 34.625 25.4583 34.75 25.625C34.875 25.7917 35.0417 25.9167 35.25 26H31.75L30.625 24.4375L33.1875 22.9375C33.3125 22.8542 33.4271 22.7396 33.5312 22.5938C33.6354 22.4479 33.6875 22.2708 33.6875 22.0625C33.6875 21.8125 33.5833 21.5833 33.375 21.375C33.1667 21.1667 32.9375 21.0625 32.6875 21.0625C32.6042 21.0625 32.5104 21.0729 32.4062 21.0938C32.3021 21.1146 32.2292 21.1667 32.1875 21.25V21.1875L29.5 22.75L27.8125 20.3125L29.8125 19.125C29.9375 19.0417 30.0521 18.9271 30.1562 18.7812C30.2604 18.6354 30.3125 18.4583 30.3125 18.25C30.3125 18 30.2083 17.7708 30 17.5625C29.7917 17.3542 29.5625 17.25 29.3125 17.25C29.2292 17.25 29.1458 17.2604 29.0625 17.2812C28.9792 17.3021 28.8958 17.3333 28.8125 17.375L26.625 18.625L26 17.75C25.7917 17.4583 25.6354 17.1354 25.5312 16.7812C25.4271 16.4271 25.375 16.0625 25.375 15.6875C25.375 14.6875 25.7292 13.8333 26.4375 13.125C27.1458 12.4167 27.9792 12.0625 28.9375 12.0625C29.1458 12.0625 29.3438 12.0833 29.5312 12.125C29.7188 12.1667 29.8958 12.2083 30.0625 12.25C30.2292 12.2917 30.3854 12.3542 30.5312 12.4375C30.6771 12.5208 30.8125 12.6042 30.9375 12.6875ZM21.4375 9.75L22.75 8.4375L24.75 10.5L25.125 11.625C25.0833 11.6667 25.0312 11.7188 24.9688 11.7812C24.9062 11.8438 24.8542 11.8958 24.8125 11.9375L21.4375 9.75ZM15.6875 22.5625C15.9375 22.0208 16.3125 21.5625 16.8125 21.1875C17.3125 20.8125 17.875 20.625 18.5 20.625C18.5417 20.625 18.5625 20.625 18.5625 20.625L18.3125 21.4375C18.1458 21.8125 17.9062 22.1562 17.5938 22.4688C17.2812 22.7812 16.9167 23 16.5 23.125L15.625 22.875L15.6875 22.5625ZM18.9375 24C19.1875 23.75 19.4167 23.4688 19.625 23.1562C19.8333 22.8438 20 22.5 20.125 22.125H20.1875L20.3125 21.6875C20.3958 21.7708 20.4896 21.8333 20.5938 21.875C20.6979 21.9167 20.8125 21.9375 20.9375 21.9375C21.2292 21.9375 21.4688 21.8438 21.6562 21.6562C21.8438 21.4688 21.9375 21.2292 21.9375 20.9375C21.9375 20.8125 21.9167 20.6979 21.875 20.5938C21.8333 20.4896 21.7708 20.3958 21.6875 20.3125L20.8125 19.4375C21.2708 19.1042 21.7604 18.8229 22.2812 18.5938C22.8021 18.3646 23.3333 18.2083 23.875 18.125H23.9375C24.0208 18.25 24.0938 18.375 24.1562 18.5C24.2188 18.625 24.2917 18.75 24.375 18.875L29.3125 26H24.75L18.9375 24ZM39 53C39 53.2917 38.9062 53.5312 38.7188 53.7188C38.5312 53.9062 38.2917 54 38 54C37.7083 54 37.4688 53.9062 37.2812 53.7188C37.0938 53.5312 37 53.2917 37 53V41C37 40.7083 37.0938 40.4688 37.2812 40.2812C37.4688 40.0938 37.7083 40 38 40C38.2917 40 38.5312 40.0938 38.7188 40.2812C38.9062 40.4688 39 40.7083 39 41V44.125C38.6667 44.7083 38.4167 45.3229 38.25 45.9688C38.0833 46.6146 38 47.2917 38 48C38.0417 48.9167 38.1562 49.8021 38.3438 50.6562C38.5312 51.5104 38.7708 52.3333 39.0625 53.125V53H39ZM55 38H55.8125C55.6042 38.5833 55.25 39.0625 54.75 39.4375C54.25 39.8125 53.6667 40 53 40H52.1875C52.3958 39.4167 52.75 38.9375 53.25 38.5625C53.75 38.1875 54.3333 38 55 38ZM48.875 41.875L48.25 36.875C48.25 36.8333 48.25 36.8125 48.25 36.8125C48.25 36.8125 48.25 36.7917 48.25 36.75C48.25 36.5417 48.3229 36.3646 48.4688 36.2188C48.6146 36.0729 48.7917 36 49 36C49.2083 36 49.3854 36.0729 49.5312 36.2188C49.6771 36.3646 49.75 36.5417 49.75 36.75C49.75 36.7917 49.75 36.8125 49.75 36.8125C49.75 36.8125 49.75 36.8333 49.75 36.875L49.125 41.875C49.125 41.9167 49.1146 41.9479 49.0938 41.9688C49.0729 41.9896 49.0417 42 49 42C48.9583 42 48.9271 41.9896 48.9062 41.9688C48.8854 41.9479 48.875 41.9167 48.875 41.875ZM53.375 44.1875C53.3333 44.1458 53.2708 44.1146 53.1875 44.0938C53.1042 44.0729 53.0208 44.0625 52.9375 44.0625C52.6458 44.0625 52.4062 44.1667 52.2188 44.375C52.0312 44.5833 51.9375 44.8125 51.9375 45.0625C51.9375 45.2708 51.9896 45.4479 52.0938 45.5938C52.1979 45.7396 52.3125 45.8542 52.4375 45.9375C52.7708 46.1042 53.0417 46.3125 53.25 46.5625C53.4583 46.8125 53.625 47.1042 53.75 47.4375C53.8333 47.6458 53.9583 47.8125 54.125 47.9375C54.2917 48.0625 54.4792 48.125 54.6875 48.125C54.9792 48.125 55.2188 48.0312 55.4062 47.8438C55.5938 47.6562 55.6875 47.4167 55.6875 47.125C55.6875 47.0417 55.6875 46.9688 55.6875 46.9062C55.6875 46.8438 55.6667 46.7917 55.625 46.75C55.4167 46.2083 55.125 45.7188 54.75 45.2812C54.375 44.8438 53.9375 44.4792 53.4375 44.1875H53.375Z" fill="#EEC044"/>
</svg>
